<?xml version="1.0" encoding="UTF-8"?>
<svg id="Capa_1" xmlns="http://www.w3.org/2000/svg" width="294.331" height="174.2" version="1.1" viewBox="0 0 294.331 174.2">
  <!-- Generator: Adobe Illustrator 29.5.1, SVG Export Plug-In . SVG Version: 2.1.0 Build 141)  -->
  <g style="isolation: isolate;">
    <g style="isolation: isolate;">
      <path d="M83.344,159.505c.779,0,1.496.09,2.149.271s1.212.496,1.679.946c.466.45.832,1.057,1.095,1.819s.395,1.727.395,2.89c0,1.131-.129,2.074-.387,2.832-.258.757-.623,1.366-1.095,1.827s-1.032.787-1.68.979-1.355.288-2.124.288h-2.14v-11.854h2.107v.002ZM82.637,160.542v9.729h.724c.669,0,1.249-.085,1.737-.255s.892-.447,1.21-.831c.318-.385.554-.884.708-1.499.154-.614.231-1.366.231-2.255,0-1.701-.313-2.941-.938-3.721-.626-.779-1.619-1.169-2.98-1.169h-.692Z" style="fill: #c2986b;"/>
      <path d="M101.503,165.876h-3.869v4.363h4.363v1.119h-5.762v-11.854h5.762v1.119h-4.363v4.165h3.869v1.087h0Z" style="fill: #c2986b;"/>
      <path d="M112.6,160.344c-.615,0-1.12.146-1.515.437s-.593.749-.593,1.375c0,.285.038.538.115.757.077.22.206.418.387.593.181.176.42.344.716.503s.664.32,1.103.485c.428.164.834.346,1.218.543.384.198.722.439,1.013.725.291.285.521.631.691,1.037s.255.9.255,1.481c0,.45-.091.879-.272,1.284-.181.406-.434.761-.757,1.062s-.71.54-1.161.716-.944.264-1.481.264c-.549,0-1.029-.068-1.441-.206-.412-.137-.766-.318-1.062-.543s-.541-.48-.733-.766-.343-.582-.453-.89l1.186-.444c.077.22.178.434.304.643.126.208.288.393.486.552s.436.288.716.387c.28.099.617.147,1.012.147.264,0,.527-.035.791-.106.263-.071.502-.189.716-.354.214-.164.387-.384.519-.658.131-.274.197-.609.197-1.004,0-.417-.052-.763-.156-1.037s-.269-.517-.494-.725c-.225-.209-.519-.396-.881-.56-.362-.165-.796-.352-1.3-.561-.889-.361-1.545-.801-1.967-1.316-.423-.516-.634-1.152-.634-1.91,0-.417.077-.81.23-1.177.154-.368.379-.687.675-.955s.656-.48,1.078-.634.908-.23,1.457-.23c.933,0,1.663.189,2.19.567.527.379.933.893,1.218,1.54l-1.218.428c-.187-.461-.445-.817-.774-1.07-.329-.252-.79-.379-1.383-.379h.002Z" style="fill: #c2986b;"/>
      <path d="M125.474,159.505c.779,0,1.496.09,2.149.271s1.212.496,1.679.946c.466.45.832,1.057,1.095,1.819s.395,1.727.395,2.89c0,1.131-.129,2.074-.387,2.832-.258.757-.623,1.366-1.095,1.827s-1.032.787-1.68.979-1.355.288-2.124.288h-2.14v-11.854h2.107v.002ZM124.767,160.542v9.729h.724c.669,0,1.249-.085,1.737-.255s.892-.447,1.21-.831c.318-.385.554-.884.708-1.499.154-.614.231-1.366.231-2.255,0-1.701-.313-2.941-.938-3.721-.626-.779-1.619-1.169-2.98-1.169h-.692Z" style="fill: #c2986b;"/>
      <path d="M143.634,165.876h-3.869v4.363h4.363v1.119h-5.762v-11.854h5.762v1.119h-4.363v4.165h3.869v1.087h0Z" style="fill: #c2986b;"/>
      <path d="M162.155,171.358v-1.136h2.189v-9.138l-2.255,1.383-.609-.938,2.766-1.695h1.399v10.389h1.794v1.136h-5.285,0Z" style="fill: #c2986b;"/>
      <path d="M175.786,170.667c.581-.055,1.122-.189,1.621-.403.5-.214.941-.519,1.325-.914.385-.395.705-.878.964-1.448.258-.571.436-1.24.535-2.009-.286.329-.626.596-1.021.799-.395.203-.828.304-1.301.304-.461,0-.867-.085-1.218-.255-.352-.17-.646-.411-.881-.725-.236-.312-.414-.686-.535-1.119s-.181-.908-.181-1.424c0-.637.087-1.194.263-1.672.176-.477.414-.875.717-1.193.302-.318.65-.554,1.045-.708.396-.153.812-.23,1.251-.23,1.142,0,1.971.398,2.486,1.194s.774,1.967.774,3.515c0,1.229-.154,2.291-.462,3.186-.307.895-.722,1.641-1.242,2.239-.521.599-1.126,1.054-1.812,1.366s-1.407.502-2.165.568l-.164-1.07h0ZM178.19,165.958c.438,0,.837-.115,1.193-.346s.667-.488.931-.773v-.346c0-1.328-.154-2.297-.461-2.906-.308-.608-.807-.913-1.498-.913-.23,0-.461.047-.691.14-.23.094-.437.247-.618.461s-.329.491-.444.831c-.115.341-.173.764-.173,1.268,0,.923.156,1.584.47,1.984.312.4.743.601,1.292.601h-.001Z" style="fill: #c2986b;"/>
      <path d="M188.81,161.596c.273-.647.699-1.131,1.275-1.449s1.188-.478,1.836-.478c.406,0,.796.061,1.169.182s.696.302.972.543c.273.241.493.543.658.905.164.362.247.779.247,1.252,0,.361-.058.691-.173.987-.115.297-.271.56-.47.79-.197.23-.425.42-.683.568-.259.148-.53.25-.815.305.329.044.647.132.955.264.307.131.576.315.807.551.23.236.411.521.543.856s.198.716.198,1.145c0,.582-.104,1.092-.313,1.531-.208.438-.478.804-.807,1.095s-.699.51-1.111.658c-.411.148-.826.223-1.243.223-.702,0-1.316-.146-1.844-.437-.526-.291-.949-.705-1.268-1.243l1.037-.593c.176.308.423.59.741.848.318.259.757.387,1.317.387.252,0,.504-.043.757-.131.252-.088.483-.229.691-.42.209-.192.376-.442.502-.749.126-.308.189-.681.189-1.12,0-.449-.061-.817-.181-1.103-.121-.285-.283-.511-.486-.676-.203-.164-.438-.276-.707-.337-.27-.061-.547-.091-.832-.091h-.725v-1.103h.774c.505,0,.93-.192,1.275-.576.346-.385.519-.9.519-1.548,0-.714-.162-1.221-.485-1.523-.324-.302-.749-.452-1.276-.452-.505,0-.925.143-1.259.428-.335.286-.562.599-.684.938l-1.103-.428h.003Z" style="fill: #c2986b;"/>
      <path d="M203.446,170.667c.581-.055,1.122-.189,1.621-.403.5-.214.941-.519,1.325-.914.385-.395.705-.878.964-1.448.258-.571.436-1.24.535-2.009-.286.329-.626.596-1.021.799-.395.203-.828.304-1.301.304-.461,0-.867-.085-1.218-.255-.352-.17-.646-.411-.881-.725-.236-.312-.414-.686-.535-1.119s-.181-.908-.181-1.424c0-.637.087-1.194.263-1.672.176-.477.414-.875.717-1.193.302-.318.65-.554,1.045-.708.396-.153.812-.23,1.251-.23,1.142,0,1.971.398,2.486,1.194s.774,1.967.774,3.515c0,1.229-.154,2.291-.462,3.186-.307.895-.722,1.641-1.242,2.239-.521.599-1.126,1.054-1.812,1.366s-1.407.502-2.165.568l-.164-1.07h0ZM205.849,165.958c.438,0,.837-.115,1.193-.346s.667-.488.931-.773v-.346c0-1.328-.154-2.297-.461-2.906-.308-.608-.807-.913-1.498-.913-.23,0-.461.047-.691.14-.23.094-.437.247-.618.461s-.329.491-.444.831c-.115.341-.173.764-.173,1.268,0,.923.156,1.584.47,1.984.312.4.743.601,1.292.601h-.001Z" style="fill: #c2986b;"/>
    </g>
  </g>
  <g>
    <path d="M25.037,146.783c-2.784,0-5.326-.484-7.627-1.332-2.421-.968-4.479-2.179-6.174-3.874-1.816-1.695-3.147-3.632-4.116-5.932-.968-2.3-1.453-4.721-1.453-7.384s.484-5.205,1.453-7.384c.968-2.3,2.421-4.237,4.116-5.811s3.874-2.905,6.174-3.874c2.3-.968,4.842-1.332,7.627-1.332s5.326.484,7.627,1.332,4.358,2.058,6.053,3.632l-6.658,6.779c-.847-.847-1.816-1.574-2.905-2.058-1.211-.484-2.542-.726-3.995-.726s-2.542.242-3.753.605c-1.09.484-2.058,1.09-2.905,1.937s-1.453,1.816-1.937,3.026c-.484,1.211-.726,2.542-.726,3.995s.242,2.905.726,3.995,1.09,2.179,1.937,3.026,1.816,1.453,2.905,1.937c1.089.484,2.3.726,3.753.726s2.905-.242,3.995-.726c1.211-.484,2.179-1.211,3.147-2.058l6.779,6.779c-1.816,1.574-3.753,2.784-5.932,3.632-2.179.847-4.842,1.332-7.748,1.332l-.363-.242h0Z" style="fill: #fff;"/>
    <path d="M38.838,146.178l13.679-35.833h10.29l13.437,35.833h-10.411l-10.048-30.506h3.632l-10.29,30.506h-10.29,0ZM47.675,140.125v-7.869h19.974v7.869h-19.974Z" style="fill: #fff;"/>
    <path d="M79.029,146.178v-35.833h10.048v35.833s-10.048,0-10.048,0ZM87.139,118.698v-8.353h18.401v8.353h-18.401ZM87.139,133.467v-8.353h17.674v8.353h-17.674Z" style="fill: #fff;"/>
    <path d="M109.898,146.178v-35.833h10.048v35.833s-10.048,0-10.048,0ZM118.13,118.698v-8.353h18.885v8.353h-18.885ZM118.13,132.015v-8.111h17.311v8.111s-17.311,0-17.311,0ZM118.13,146.178v-8.353h19.248v8.353s-19.248,0-19.248,0Z" style="fill: #fff;"/>
    <path d="M139.073,118.819v-8.595h31.596v8.595h-31.596ZM149.726,146.178v-35.833h10.048v35.833h-10.048Z" style="fill: #fff;"/>
    <path d="M174.3,146.178v-35.833h10.048v35.833h-10.048ZM182.532,118.698v-8.353h18.885v8.353h-18.885ZM182.532,132.015v-8.111h17.311v8.111h-17.311ZM182.532,146.178v-8.353h19.248v8.353h-19.248Z" style="fill: #fff;"/>
    <path d="M206.501,146.178v-35.833h10.048v35.833h-10.048ZM214.612,131.894v-6.9h6.053c1.332,0,2.421-.363,3.147-.968.726-.726,1.09-1.574,1.09-2.663s-.363-1.937-1.09-2.663c-.726-.726-1.816-.968-3.147-.968h-6.053v-7.263h7.748c2.542,0,4.721.484,6.537,1.332s3.39,2.179,4.479,3.753c1.09,1.574,1.574,3.511,1.574,5.69s-.605,3.995-1.695,5.69c-1.09,1.574-2.663,2.905-4.6,3.753s-4.237,1.332-6.9,1.332h-7.142v-.125ZM225.87,146.178l-9.806-15.253,9.079-1.937,12.106,17.311h-11.379v-.121Z" style="fill: #fff;"/>
    <path d="M239.792,146.178v-35.833h10.048v35.833h-10.048Z" style="fill: #fff;"/>
    <path d="M253.108,146.178l13.679-35.833h10.29l13.437,35.833h-10.411l-10.048-30.506h3.632l-10.29,30.506h-10.29.001ZM261.945,140.125v-7.869h19.974v7.869h-19.974Z" style="fill: #fff;"/>
  </g>
  <g>
    <path d="M172.363,39.285c-3.147-3.269-7.627-2.3-11.016-.847.242-1.332.484-2.663.847-3.753s-.484-2.179-1.574-2.179h-39.343c-1.211,0-1.937,1.09-1.574,2.179,3.026,9.685.847,33.533,21.306,33.533s12.953-3.995,15.737-9.442c1.574.726,3.147,1.211,4.721,1.211,3.026,0,6.053-1.453,8.716-4.358,4.237-4.6,6.174-12.227,2.421-16.222l-.242-.121h.001ZM125.272,39.406c1.816,0,3.39,1.453,3.39,3.269.242,7.142.242,16.585,7.263,20.459-10.048-3.269-9.442-16.343-10.653-23.848v.121h0ZM167.158,53.086c-1.332,1.574-4.842,4.6-9.2,2.179,1.332-3.995,2.058-8.353,2.663-12.348,2.663-1.574,6.9-3.269,8.958-1.09s.847,7.505-2.421,11.137v.121h0Z" style="fill: #c2986b;"/>
    <path d="M135.078,23.548c.484.484.726.968,1.211,1.09.847.484,1.332.605,1.332.605,0,0-.121-.484-.363-1.09-.121-.242,0-.726,0-1.09s.242-.847.363-1.332c.242-.484.484-.968.847-1.453.363-.484.726-1.09,1.211-1.695.847-1.211,1.816-2.542,2.663-4.116.726-1.574,1.453-3.269,1.332-5.084,0-.847-.242-1.695-.484-2.542-.242-.726-.847-1.453-1.211-2.058-.605-.605-1.09-1.09-1.574-1.453-.484-.363-.968-.484-1.332-.726-.847-.363-1.332-.605-1.332-.605,0,0,.121.363.484,1.09.121.363.363.726.484,1.211,0,.484.121.968.363,1.332v1.574c-.121.605,0,1.09-.363,1.695-.121.605-.363,1.211-.605,1.816s-.605,1.332-.968,1.937c-.605,1.332-1.453,2.784-2.058,4.358-.242.726-.484,1.453-.605,2.3-.242.726,0,1.574,0,2.3.242.726.363,1.332.726,1.937h-.121,0Z" style="fill: #c2986b;"/>
    <path d="M145.368,17.858c-.242.484-.484,1.09-.726,1.574-.484,1.09-1.211,2.3-1.574,3.39-.242.605-.363,1.211-.484,1.816-.121.605,0,1.211,0,1.816.121.605.242,1.09.605,1.453.363.363.605.726.968.847.726.363,1.09.484,1.09.484,0,0,0-.363-.242-.847-.121-.242,0-.605,0-.847,0-.363.242-.726.242-.968.242-.363.363-.726.726-1.211.242-.363.605-.847.968-1.332.726-.968,1.453-2.058,2.058-3.39.605-1.211,1.09-2.663,1.09-4.116,0-.726-.121-1.453-.363-2.058s-.605-1.211-.968-1.695c-.484-.484-.847-.847-1.332-1.211-.363-.363-.847-.484-1.09-.605-.605-.242-1.09-.484-1.09-.484,0,0,0,.363.363.847,0,.242.363.605.484.968,0,.363.121.726.242,1.09v1.332c0,.484,0,.847-.242,1.332,0,.484-.363.968-.484,1.453l-.242.363h.001Z" style="fill: #c2986b;"/>
  </g>
  <g>
    <rect x="5.79" y="166.758" width="60.891" height="2.421" style="fill: #c2986b;"/>
    <rect x="227.202" y="166.758" width="60.891" height="2.421" style="fill: #c2986b;"/>
  </g>
  <rect x="5.79" y="89.282" width="282.304" height="2.421" style="fill: #c2986b;"/>
</svg>